<svg id="Capa_1" enable-background="new 0 0 512 512" height="512" viewBox="0 0 512 512" width="512" xmlns="http://www.w3.org/2000/svg"><g><path d="m88.074 375.302c4.142 0 7.5-3.373 7.5-7.515s-3.358-7.5-7.5-7.5-7.5 3.358-7.5 7.5v.029c0 4.142 3.358 7.486 7.5 7.486z"/><path d="m80.574 398.006c0 4.142 3.358 7.486 7.5 7.486s7.5-3.373 7.5-7.515-3.358-7.5-7.5-7.5-7.5 3.358-7.5 7.5z"/><path d="m423.897 360.287c-4.142 0-7.5 3.358-7.5 7.5v.029c0 4.142 3.358 7.486 7.5 7.486s7.5-3.373 7.5-7.515-3.357-7.5-7.5-7.5z"/><path d="m423.897 390.478c-4.142 0-7.5 3.358-7.5 7.5v.029c0 4.142 3.358 7.486 7.5 7.486s7.5-3.373 7.5-7.515-3.357-7.5-7.5-7.5z"/><path d="m343.544 333.436h-40.434c-4.142 0-7.5 3.358-7.5 7.5s3.358 7.5 7.5 7.5h40.434c4.142 0 7.5-3.358 7.5-7.5s-3.358-7.5-7.5-7.5z"/><path d="m208.861 348.436c4.142 0 7.5-3.358 7.5-7.5s-3.358-7.5-7.5-7.5h-40.434c-4.142 0-7.5 3.358-7.5 7.5s3.358 7.5 7.5 7.5z"/><path d="m456.993 459.726-.057-183.882c-.001-4.141-3.359-7.498-7.5-7.498 0 0-.001 0-.002 0-4.142.001-7.499 3.36-7.498 7.502l.054 176.379h-36.688l-21.57-78.073c-6.044-21.933-3.544-45.629-1.127-68.544.506-4.795 1.029-9.753 1.454-14.557l10.215-116.567c.362-4.126-2.69-7.765-6.816-8.126-4.135-.365-7.765 2.69-8.126 6.816l-10.215 116.561c-.413 4.671-.907 9.348-1.429 14.298-2.564 24.303-5.215 49.434 1.585 74.108l32.819 118.857h-113.82c-1.53 0-3.302-.398-3.581-1.276l-21.191-66.72v-124.077c.77-.93 80.373-115.957 80.755-116.498 4.764-6.76 7.106-10.797 4.028-21.728l-4.487-16.005c-.913-3.212-.913-3.212.833-5.1.168-.182.327-.372.476-.569l12.926-17.104c4.043-5.212 5.115-9.668 4.742-19.794l.087-37.049 29.828 11.663c48.443 18.946 48.749 36.352 49.248 67.975v91.344c0 4.142 3.358 7.5 7.5 7.5s7.5-3.358 7.5-7.5v-91.399c0-.04-.001-.125-.001-.165-.521-33.019-.932-59.1-58.784-81.726l-62.037-24.256c-5.251-2.051-7.726-3.963-10.583-8.174l-17.141-25.34c-6.502-9.563-9.612-11.002-23.77-11.002h-57.269c-14.171 0-17.279 1.442-23.757 11.026l-17.146 25.306c-2.873 4.232-5.34 6.145-10.563 8.185l-62.065 24.256c-57.874 22.646-58.262 48.741-58.754 81.778 0 .037-.001.073-.001.109l-.028 91.399c-.001 4.142 3.355 7.501 7.498 7.502h.002c4.141 0 7.499-3.356 7.5-7.498l.028-91.344c.471-31.6.756-49.013 49.218-67.977l29.83-11.658.088 37.055c-.345 10.126.733 14.578 4.713 19.708l12.983 17.179c.144.191.297.375.459.551 1.737 1.892 1.737 1.892.813 5.144l-4.483 15.993c-3.051 10.964-.691 15.01 4.103 21.784.373.526 79.932 115.527 80.712 116.463v124.043l-21.192 66.723c-.238.75-1.722 1.274-3.609 1.274h-113.815c.076-.326 32.814-118.853 32.814-118.853 6.805-24.604 4.172-49.667 1.625-73.904-.527-5.02-1.026-9.762-1.44-14.501l-10.244-116.567c-.363-4.126-4.004-7.177-8.128-6.814-4.126.363-7.177 4.001-6.814 8.128l10.244 116.563c.425 4.866.954 9.895 1.465 14.758 2.4 22.848 4.882 46.474-1.165 68.339l-21.572 78.078h-36.66l.027-175.296c0-4.142-3.357-7.5-7.499-7.501-4.142 0-7.5 3.357-7.5 7.499l-.028 182.797v44.773c0 4.142 3.358 7.5 7.5 7.5h161.191c8.749 0 15.61-4.498 17.906-11.735l14.393-45.324 14.395 45.321c2.297 7.24 9.147 11.738 17.878 11.738h161.22c4.142 0 7.5-3.358 7.5-7.5v-44.772-.001c0-.001 0-.001 0-.001zm-362.318 37.274h-24.668v-29.772h32.517s-7.633 27.678-7.849 29.772zm238.192-437.649 15.007 5.868-.102 43.022c0 .101.001.202.005.303.295 7.742-.378 8.609-1.656 10.259l-12.774 16.902c-6.598 7.317-5.651 13.206-3.987 19.064l4.482 15.988c1.289 4.578 1.289 4.578-1.849 9.03-.404.573-54.041 77.627-54.041 77.627zm-51.788 61.642c-.031-1.588.348-2.982 1.332-5.479l5.849-14.86 14.064 12.718-13.229 47.713-7.344-35.677c-.339-1.645-.569-2.822-.645-3.864 0-.005.001-.01.001-.016-.001-.181-.016-.358-.028-.535zm32.034-76.237c1.945 2.866 3.955 5.205 6.24 7.194l-12.546 45.252-39.63-35.837 35.477-32.072zm-36.742 45.147-7.916 20.113c-.572 1.45-1.024 2.771-1.377 4.011h-22.159c-.351-1.242-.803-2.563-1.375-4.014l-7.937-20.109 20.386-18.429zm-57.451-74.408c1.018-.495 6.213-.495 8.431-.495h57.269c2.223 0 7.429 0 8.42.485.225.157.622.65 1.093 1.29l-38.139 34.478-38.136-34.485c.462-.635.849-1.121 1.062-1.273zm-20.058 29.256 10.477-15.463 35.471 32.076-39.645 35.84-12.545-45.249c2.282-1.99 4.293-4.333 6.242-7.204zm31.359 80.657-7.344 35.675-13.228-47.712 14.073-12.722 5.869 14.869c1.698 4.308 1.574 5.307.63 9.89zm-50.19 54.424c-3.178-4.49-3.178-4.49-1.899-9.083l4.472-15.955c1.669-5.876 2.618-11.76-3.944-19.08l-12.838-16.986c-1.225-1.579-1.899-2.449-1.627-10.206.003-.094.005-.188.005-.281l-.102-43.014 15.01-5.866 54.905 198.032s-53.588-77.006-53.982-77.561zm75.955 100.67-24.321-87.72 13.125-63.754h22.391l13.125 63.756zm186.007 216.498h-24.681c-.221-2.104-7.865-29.772-7.865-29.772h32.546z"/></g></svg>